# xmcd
#
# Track frame offsets:
#	150
#	9470
#	23814
#	35701
#	43854
#	55946
#	66555
#	79763
#	92767
#	106950
#	120188
#	136503
#
# Disc length: 1990 seconds
#
# Revision: 1
# Processed by: cddbd v1.5.2PL0 Copyright (c) Steve Scherf et al.
# Submitted via: audiograbber 1.83.01
#
DISCID=9607c40c
DTITLE=Brightwater Junction - A Phone Call Away
DYEAR=2008
DGENRE=Bluegrass
TTITLE0=Won't You Think of Me
TTITLE1=Stay Behind
TTITLE2=Wasted Words
TTITLE3=Redwing
TTITLE4=Why Don't You Tell Me So
TTITLE5=Let's Part the Best of Friends
TTITLE6=Watson's Blues
TTITLE7=A Phone Call Away
TTITLE8=Secret of the Waterfall
TTITLE9=Cherokee Shuffle
TTITLE10=Iron Curtain
TTITLE11=Want To Be Ready
EXTD=
EXTT0=
EXTT1=
EXTT2=
EXTT3=
EXTT4=
EXTT5=
EXTT6=
EXTT7=
EXTT8=
EXTT9=
EXTT10=
EXTT11=
PLAYORDER=
